<?xml version="1.0" encoding="utf-8"?>
<!-- Generator: Adobe Illustrator 19.0.0, SVG Export Plug-In . SVG Version: 6.00 Build 0)  -->
<svg version="1.1" id="Layer_1" xmlns="http://www.w3.org/2000/svg" xmlns:xlink="http://www.w3.org/1999/xlink" x="0px" y="0px"
	 viewBox="176 273 248 248" style="enable-background:new 176 273 248 248;" xml:space="preserve">
<style type="text/css">
	.st0{fill:url(#SVGID_1_);enable-background:new    ;}
	.st1{fill:#FFFFFF;enable-background:new    ;}
</style>
<title>Asset 5</title>
<g>
	<linearGradient id="SVGID_1_" gradientUnits="userSpaceOnUse" x1="265.041" y1="316.3521" x2="349.0443" y2="510.1417">
		<stop  offset="0" style="stop-color:#01C3CC"/>
		<stop  offset="0.51" style="stop-color:#4569E0"/>
		<stop  offset="0.998" style="stop-color:#7428EF"/>
		<stop  offset="1" style="stop-color:#7428EF"/>
	</linearGradient>
	<circle class="st0" cx="300" cy="397" r="124"/>
	<path class="st1" d="M360.5,425c0.2-2.4-3-3.3-4.1-1.2c-11,21.6-28.7,36.9-49.4,38.2c-16.7,1-31.4-9.5-37.1-26.3
		c-5.5-16.3-5.4-30.3-2-49.4c5.1-28.6,23.5-59.4,52.3-58.1c12.1,0.5,17.9,7.7,17.9,19.6c0,14.3-8,21-8,26.4c0,1.6,1.4,3.3,4.1,3.3
		c11,0,24-13,24-30.6c0-17.7-14.3-30.6-39.7-30.6c-41.9,0-79.1,39.3-79.1,93.3c0,43,25.5,68.1,62.2,68.1c13.2,0,31.6-7.8,46.4-25.1
		C361.6,436.9,360.5,425,360.5,425z"/>
</g>
</svg>
