<svg viewBox="0 0 366.009 384.253" xmlns="http://www.w3.org/2000/svg"><g data-name="Group 24"><path d="M166.448 0c10.044 3.412 17.187 9.707 19.358 20.433 1.094 5.4.439 10.974.357 16.462-.043 2.861.826 4.215 3.706 4.914a117.225 117.225 0 0 1 45.151 21.968c2.024 1.587 3.591 1.476 5.756.562 51.466-21.73 109.932 7.886 122.746 62.131 12.164 51.489-21.483 100.871-74.927 109.765-3.163.527-3.478 1.57-2.956 4.371q4.08 21.906 7.786 43.881c.47 2.774 1.88 3.895 4.445 4.695 13.853 4.318 23.322 17.323 23 31.276a32.634 32.634 0 0 1-24.878 31 42.571 42.571 0 0 1-10.4 1.128c-27.5-.022-55 .043-82.5-.084-3.3-.015-4.721.925-5.7 4.2-5.117 17.135-19.889 27.694-38.018 27.551a38.112 38.112 0 0 1-36.146-28.043c-.909-3.2-2.571-3.674-5.373-3.668q-42 .09-84 .012c-15.765-.043-28.591-9.366-32.569-23.41a32.084 32.084 0 0 1 21.423-39.852c2.981-.935 4.234-2.392 4.7-5.3 2.711-16.759 6.339-33.36 8.657-50.187a273.275 273.275 0 0 0 2.135-35.5c.1-15.117-.468-30.234.438-45.352a119.871 119.871 0 0 1 28.26-71.189c16.84-20.235 38.222-33.429 63.679-40 2.647-.682 3.706-1.876 3.639-4.637a109.12 109.12 0 0 1 .284-13.476c1.147-11.465 7.423-19.034 18.224-22.918.584-.21 1.143-.488 1.714-.734Zm-5.934 287.736h114.737c4.965 0 4.968-.007 4.12-4.961-.084-.491-.238-.971-.325-1.462-2.343-13.15-4.852-26.274-6.907-39.469-.55-3.529-1.837-4.97-5.282-5.308-23.717-2.331-43.514-12.517-59.136-30.447-16.98-19.489-24.231-42.436-21.627-68.021 2.665-26.181 14.963-47.338 36.1-63.167 2.229-1.669 2.03-2.51-.122-3.962-25.646-17.312-53.784-23.305-83.946-16.866-51.523 11-86.152 54.556-86.194 107.261q-.016 22.123-.027 44.245a231.058 231.058 0 0 1-1.945 26.88c-2.012 17-5.764 33.708-8.582 50.572-.784 4.695-.8 4.7 4.023 4.7q57.558.009 115.113.005Zm191.24-140.656a76.213 76.213 0 0 0-76.195-76.336 76.147 76.147 0 0 0-76.152 76.715 75.682 75.682 0 0 0 76.363 75.951 75.675 75.675 0 0 0 75.984-76.33ZM160.335 338.786h123.726c1.875 0 3.755.064 5.623-.056a19.053 19.053 0 0 0 17.414-16.82c1.091-8.214-4.474-16.989-12.565-19.61a34.5 34.5 0 0 0-10.744-1.261l-246.7.033a58.881 58.881 0 0 0-7.833.574 18.447 18.447 0 0 0-15.566 16.79c-.741 11.435 7.715 20.319 19.549 20.33q63.546.059 127.096.02Zm.086 13.8c-6.857 0-13.714.049-20.57-.023-2.911-.031-3.566 1.036-2.284 3.613 4.66 9.375 12.335 14.17 22.654 14.581 9.54.38 19.169-5.963 23.036-14.6 1.166-2.6.682-3.637-2.266-3.6-6.856.083-13.713.026-20.57.027ZM147.938 29.998c0 2.152.062 3.9-.016 5.643-.09 1.99.4 2.885 2.751 2.707a104.19 104.19 0 0 1 19.791.126c1.57.18 2.469-.251 2.425-1.9-.118-4.475.479-8.976-.5-13.423a12.141 12.141 0 0 0-11.542-9.935 12.435 12.435 0 0 0-12.23 8.664c-.965 2.805-.555 5.675-.679 8.118Z" data-name="Path 1019" fill="#ffffff" class="fill-000000"></path><path d="M64.159 155.155c1.922-28.523 13.627-52.059 35.8-70.24 3.413-2.8 7.661-2.579 10.09.273 2.7 3.171 2.293 7.145-1.413 10.186a83.455 83.455 0 0 0-27.192 39.573c-2.516 7.789-3.469 15.829-3.962 23.94-.3 4.994-2.623 7.8-6.684 7.8-4.213.007-6.632-2.967-6.639-8.164v-3.368Z" data-name="Path 1020" fill="#ffffff" class="fill-000000"></path><path d="M268.592 119.404a28.778 28.778 0 0 1-2.571 1.567c-3.054 1.411-5.869 1.036-8.189-1.467a6.348 6.348 0 0 1-.131-8.583c4.406-4.756 9.035-9.318 13.762-13.759 1.962-1.844 4.57-1.9 7.035-.748a6.2 6.2 0 0 1 3.7 6.012c.035 5.244.033 10.487.033 15.731v61.425c0 5.251.005 5.256 5.151 5.523 3.525.183 6.413 1.388 7.391 5.12a6.564 6.564 0 0 1-6.447 8.536c-8.479.278-16.978.24-25.461.014a6.46 6.46 0 0 1-6.677-7.02c.1-3.73 2.612-6.194 6.775-6.6a15.278 15.278 0 0 1 2.619-.051c2.339.172 3.373-.713 3.365-3.212-.065-20.349-.039-40.7-.052-61.05a8.912 8.912 0 0 0-.303-1.438Z" data-name="Path 1021" fill="#ffffff" class="fill-000000"></path></g></svg>